PathFileType	4	(X/Y/Z)	Patient4_TMGait_0pt2_03_left_20.trc.trc
DataRate	CameraRate	NumFrames	NumMarkers	Units	OrigDataRate	OrigDataStartFrame	OrigNumFrames
48.275862068966	48.275862068966	4	33	mm	48.275862068966	124	       141
Frame#	Time	Sacral			L.Shoulder			Chest			R.Shoulder			Neck			R.ASIS			L.ASIS			R.Thigh.Superior			R.Thigh.Lateral			R.Thigh.Inferior			R.Patella			L.Thigh.Superior			L.Thigh.Lateral			L.Thigh.Inferior			L.Patella			L.Shank.Superior			L.Shank.Lateral			L.Shank.Inferior			R.Shank.Superior			R.Shank.Lateral			R.Shank.Inferior			R.Heel			R.Midfoot.Superior			R.Midfoot.Lateral			R.Toe			L.Heel			L.Midfoot.Lateral			L.Midfoot.Superior			L.Toe			L.Elbow			L.Wrist			R.Elbow			R.Wrist			
		X1	Y1	Z1	X2	Y2	Z2	X3	Y3	Z3	X4	Y4	Z4	X5	Y5	Z5	X6	Y6	Z6	X7	Y7	Z7	X8	Y8	Z8	X9	Y9	Z9	X10	Y10	Z10	X11	Y11	Z11	X12	Y12	Z12	X13	Y13	Z13	X14	Y14	Z14	X15	Y15	Z15	X16	Y16	Z16	X17	Y17	Z17	X18	Y18	Z18	X19	Y19	Z19	X20	Y20	Z20	X21	Y21	Z21	X22	Y22	Z22	X23	Y23	Z23	X24	Y24	Z24	X25	Y25	Z25	X26	Y26	Z26	X27	Y27	Z27	X28	Y28	Z28	X29	Y29	Z29	X30	Y30	Z30	X31	Y31	Z31	X32	Y32	Z32	X33	Y33	Z33	

124	44.427857142857	891.474981282228	1002.048843669435	629.244712655354	1020.678714070041	1430.436452072511	422.634497000230	1163.967267725532	1356.669122336987	546.373749582956	1134.800837593527	1430.468979332770	734.440831715403	1044.387258586175	1488.303434352264	579.935782262512	1136.575844077790	928.911194226120	692.676963323243	1066.901077855121	961.183813588285	428.210339407053	1143.909923676313	720.547972427274	649.073155174305	1064.579179433606	614.316733850356	722.273767980116	1114.161072878652	558.877525607063	626.881765881689	1102.633658417618	466.698816535913	630.900877729201	1135.879291413169	761.223310661675	438.384491373986	1055.280418434259	632.047459375287	360.184806974750	1167.098955618996	574.297550542421	407.363288859404	1181.752872037475	507.177169455889	401.074140053838	1160.900569395128	436.819368210361	384.363827683587	1080.905821620118	320.407486516414	321.993301387299	1156.916746497629	207.425082669736	365.476219280379	1055.605976585601	383.784821537483	642.160302957335	979.330665366666	294.083903382850	720.071689730990	982.084978683396	197.730645994848	648.560169176816	813.504910579662	48.870536036914	648.526879056128	991.359412381320	96.681321646256	652.986561742078	908.426929286789	38.999289342897	706.055630366669	1111.804684058498	39.547818186085	659.277325846578	1047.611595242052	45.318703523688	388.508716258094	1124.129303822199	40.165089101138	311.277911025888	1207.082698879211	101.697312094276	338.251002413746	1333.934729040022	50.153252534733	315.008439719464	847.622881548592	1123.696501587296	350.733442976010	775.161064635339	878.110797554505	414.555149918855	1376.182361311223	1206.851776351791	804.900129352296	1486.514533569341	1394.314145818768	686.832574389057	
125	44.448571428571	891.273664729726	1000.971858385644	625.540576784367	1019.892563066761	1428.994867372227	417.614956070883	1163.354952943842	1355.758382393318	541.481939278551	1133.978069363978	1429.650091632499	729.462197553177	1043.096574049306	1487.236053408886	575.039037914266	1136.609688936012	928.369300156435	689.237325343747	1066.748625014979	959.463050641675	424.690155064783	1143.203586788196	719.601089637608	646.288214563065	1063.246259994553	613.852384655062	719.895349545481	1112.305584334163	557.878559725916	624.724910804469	1100.087597147131	465.680524545650	629.079994896129	1136.021763043036	759.368304151243	435.498562120384	1054.716010484005	630.061889716878	358.556257439521	1166.677979581742	572.391062981423	405.509680379257	1180.417323574863	504.839103973370	399.648787598862	1159.300100047053	434.357856117267	383.185779347400	1078.252203564659	318.295593186426	321.681274555905	1153.163970956814	204.985368759379	365.833266061675	1052.724787985204	383.033822635766	640.750510167002	976.056303748792	293.976589706201	719.062042371889	978.358829049124	197.334922548095	647.997132068916	809.354668930726	48.791521820198	648.527883715233	987.210689652554	96.667561932588	652.922604323917	904.276840799778	38.986946566342	706.079777889896	1107.668393330994	39.564556495304	659.331832491747	1042.821750155323	42.853156184711	389.396282941978	1119.208732174877	38.763733913984	311.825248008426	1201.820359488823	100.566185542767	339.239916399412	1329.094271440041	50.013425953201	315.256291493558	849.310067340757	1120.894286867302	344.357915714122	779.175024864476	874.092812211156	405.981177899270	1374.722618772856	1204.578387921069	799.688340398123	1485.311192500872	1391.976901911715	681.251679831633	
126	44.469285714286	891.026432759875	1000.194774456853	621.582538089495	1019.367111486018	1427.809604563086	412.409314645020	1162.920274874624	1355.014477536371	536.450995715082	1133.324230848656	1429.032878486361	724.342373800159	1041.991510971874	1486.403750990009	569.913032549426	1136.548804889185	927.964007892557	685.564924012358	1066.607861812970	958.091401761208	420.922902340266	1142.458394210840	718.818657227432	643.282026147161	1061.958469758611	613.554222161455	717.310270057123	1110.580235907890	557.036389078982	622.388844503331	1097.741220640671	464.810238517102	627.121403911854	1136.353612419655	758.085626306517	432.504586375561	1054.708046044340	628.607073872007	356.583875416499	1166.683768559202	570.980572208358	403.513260939300	1179.614723674772	502.959728966052	398.062492990834	1158.142432310048	432.293682821153	381.859112675594	1076.026236128289	316.663265011490	321.034876566249	1149.580079744734	202.931312426393	365.989385748164	1050.002541452451	382.447722602739	639.232191348736	972.907483998323	294.093908087249	717.961265601964	974.735637850470	197.110416807329	647.398080272066	805.273787139927	48.991704424427	648.528176944438	983.157173805229	96.713461559671	652.867002460328	900.181298782646	39.113634485501	706.100863078549	1103.572859422892	39.537800847753	659.387346584639	1037.967671020332	40.906541913695	389.985624692319	1114.235016509361	37.697489691583	312.108026502488	1196.581809830910	99.697971210621	339.933150240682	1324.223390930556	49.925528736286	315.297434562680	851.597998987069	1118.201763358283	337.406574335031	784.383894192533	869.970507730604	396.331545625148	1373.156494229084	1202.146926282335	794.556707318880	1484.689297053379	1389.175511761033	675.679862402331	
127	44.490000000000	890.735541563241	999.773030094914	617.317855278039	1019.083526593487	1426.958923443908	407.072002328887	1162.644520570306	1354.512088556184	531.332448487238	1132.807419186424	1428.673380089385	719.138547229912	1041.049519506709	1485.861620515683	564.622978981218	1136.373996582787	927.747095433867	681.657776499290	1066.519127372346	957.141096657444	416.887088675429	1141.601355170641	718.240017171702	640.096465488223	1060.600818738883	613.488203160945	714.558358252673	1108.889244682009	556.395859239918	619.939367239497	1095.490782900352	464.149722334816	625.093679018973	1136.840758934689	757.401767934763	429.374028912671	1055.181030931353	627.684359134092	354.247043753634	1167.026120147796	570.061145368753	401.349846946249	1179.259091926725	501.554936942821	396.334145413352	1157.379800767658	430.655712307490	380.406202100642	1074.260371685987	315.504993866668	320.061771177115	1146.248124451150	201.305848246471	365.966810314353	1047.360450956519	382.083048002105	637.655511068624	969.808357745198	294.475873133415	716.796167849001	971.188483676362	197.094797873148	646.783937133082	801.259432004533	49.496637782140	648.522565797215	979.200079774957	96.823925414737	652.819987301418	896.136551607202	39.395409866326	706.114417506896	1099.511151162785	39.466280972794	659.441907821375	1033.202724579947	39.516580910904	390.299259590078	1109.372613507243	36.961888530133	312.172176383420	1191.538179115958	99.080963181941	340.355339220689	1319.474637461298	49.839856506208	315.199273713945	854.413520242749	1115.751285859495	329.956245443430	790.746600146576	865.915048156092	385.703892741734	1371.586271102534	1199.814897427007	789.474032450182	1484.759462857485	1386.137322480028	670.113954541944	
